<svg viewBox="0 0 487.3 487.3" xmlns="http://www.w3.org/2000/svg">
	<path
		d="M487.2,69.7c0,12.9-10.5,23.4-23.4,23.4h-322c-12.9,0-23.4-10.5-23.4-23.4s10.5-23.4,23.4-23.4h322.1C476.8,46.4,487.2,56.8,487.2,69.7z" />
	<path
		d="M463.9,162.3H141.8c-12.9,0-23.4,10.5-23.4,23.4s10.5,23.4,23.4,23.4h322.1c12.9,0,23.4-10.5,23.4-23.4C487.2,172.8,476.8,162.3,463.9,162.3z" />
	<path
		d="M463.9,278.3H141.8c-12.9,0-23.4,10.5-23.4,23.4s10.5,23.4,23.4,23.4h322.1c12.9,0,23.4-10.5,23.4-23.4C487.2,288.8,476.8,278.3,463.9,278.3z" />
	<path
		d="M463.9,394.3H141.8c-12.9,0-23.4,10.5-23.4,23.4s10.5,23.4,23.4,23.4h322.1c12.9,0,23.4-10.5,23.4-23.4C487.2,404.8,476.8,394.3,463.9,394.3z" />
</svg>